<svg width="114" height="24" viewBox="0 0 114 24" fill="none" xmlns="http://www.w3.org/2000/svg">
<path d="M21.7473 1.25627H7.90217L4.9447 4.18757L0.600098 23.0316H8.42562L9.36782 18.8964H12.1421L11.1999 23.0316H19.0516L23.3438 4.44929L21.7473 1.25627ZM10.912 12.1963L11.8542 8.13958H14.6285L13.6862 12.1963H10.912Z" fill="white"/>
<path d="M26.3029 1.15158L21.2255 23.1101H30.3335L35.4109 1.15158H26.3029Z" fill="white"/>
<path d="M59.637 7.66848L61.2859 0.549617H38.2019L36.5531 7.66848H43.2008L41.1594 16.4885H33.962L32.287 23.7645H56.6272L58.3023 16.4885H50.8955L52.9369 7.66848H59.637Z" fill="white"/>
<path d="M87.4059 0H64.6621L61.0765 15.494H60.0035L58.7472 20.9902H60.5269L58.7734 22.2465L58.3808 24H68.0383L70.7603 20.9902H71.8857L73.4822 24H82.6163L83.0351 22.1941L81.7003 20.9902H83.5585L84.841 15.494H83.8202L87.4059 0ZM78.8737 5.28681L78.6643 6.15049H70.3153L70.5247 5.28681H78.8737ZM77.9315 9.34351H69.5825L69.7919 8.47983H78.1409L77.9315 9.34351ZM77.3819 11.6728L77.1987 12.5365H68.8497L69.0329 11.6728H77.3819ZM76.649 14.8659L76.4397 15.7557H68.0907L68.3001 14.8659H76.649Z" fill="white"/>
<path d="M112.453 6.8048L113.997 0.130861H90.3633L88.8192 6.8048H95.7025L95.2575 8.79389H88.8715L87.4059 15.1538H93.7919L93.347 17.1167H85.8355L84.2652 23.8953H109.103L110.673 17.1167H103.083L103.528 15.1538H110.071L111.537 8.79389H104.994L105.439 6.8048H112.453Z" fill="white"/>
</svg>
