<svg width="80" height="80" viewBox="0 0 80 80" fill="none" xmlns="http://www.w3.org/2000/svg">
<g clip-path="url(#clip0_174_1632)">
<path d="M13.3334 20.0001H6.66669V66.6667C6.66669 70.3334 9.66669 73.3334 13.3334 73.3334H60V66.6667H13.3334V20.0001ZM66.6667 6.66675H26.6667C23 6.66675 20 9.66675 20 13.3334V53.3334C20 57.0001 23 60.0001 26.6667 60.0001H66.6667C70.3334 60.0001 73.3334 57.0001 73.3334 53.3334V13.3334C73.3334 9.66675 70.3334 6.66675 66.6667 6.66675ZM63.3334 36.6667H50V50.0001H43.3334V36.6667H30V30.0001H43.3334V16.6667H50V30.0001H63.3334V36.6667Z" fill="white"/>
</g>
<defs>
<clipPath id="clip0_174_1632">
<rect width="80" height="80" fill="white"/>
</clipPath>
</defs>
</svg>
