<svg width="24" height="24" viewBox="0 0 24 24" fill="none" xmlns="http://www.w3.org/2000/svg">
<path fill-rule="evenodd" clip-rule="evenodd" d="M22.9295 8.9455C22.9179 8.98868 22.9153 9.03216 22.9206 9.07399L13.4492 11.366C12.959 11.4846 12.5164 11.0429 12.6352 10.5538L14.8851 1.2936C15.0598 1.33192 15.2354 1.22661 15.2821 1.05244C15.3301 0.873213 15.2234 0.688866 15.0437 0.64073C14.8641 0.592595 14.6795 0.698886 14.6315 0.878118C14.5848 1.05228 14.6842 1.23126 14.8546 1.28543L12.173 10.4299C12.0313 10.9129 11.4271 11.0741 11.0619 10.7263L4.00556 4.00581C4.03107 3.97222 4.05055 3.9332 4.06212 3.89001C4.11015 3.71078 4.00343 3.52643 3.82379 3.4783C3.64414 3.43016 3.45955 3.53645 3.41152 3.71568C3.3635 3.89492 3.47021 4.07926 3.64986 4.1274C3.77852 4.16187 3.90966 4.11718 3.99145 4.02318L10.7238 11.0639C11.0723 11.4284 10.9107 12.0313 10.4267 12.1727L1.07598 14.9039C1.05215 14.7816 0.960918 14.6773 0.832259 14.6428C0.652614 14.5947 0.468023 14.701 0.419998 14.8802C0.371973 15.0594 0.478688 15.2438 0.658333 15.2919C0.837978 15.3401 1.02257 15.2338 1.0706 15.0545C1.08217 15.0114 1.08481 14.9678 1.07951 14.926L10.5508 12.6341C11.0409 12.5154 11.4835 12.9572 11.3647 13.4463L9.11491 22.7064C8.94021 22.6681 8.76464 22.7734 8.71798 22.9476C8.66995 23.1268 8.77667 23.3112 8.95631 23.3593C9.13596 23.4074 9.32055 23.3011 9.36857 23.1219C9.41524 22.9478 9.31586 22.7688 9.1454 22.7146L11.827 13.5702C11.9687 13.0872 12.5728 12.9259 12.938 13.2738L19.9945 19.9943C19.969 20.0279 19.9495 20.0668 19.9379 20.11C19.8899 20.2893 19.9966 20.4736 20.1763 20.5217C20.3559 20.5699 20.5405 20.4636 20.5885 20.2844C20.6366 20.1051 20.5298 19.9208 20.3502 19.8726C20.2215 19.8382 20.0903 19.8829 20.0086 19.9769L13.2762 12.9362C12.9277 12.5717 13.0892 11.9688 13.5733 11.8274L22.9241 9.09608C22.9478 9.21836 23.0391 9.32274 23.1678 9.35721C23.3474 9.40535 23.532 9.29906 23.5801 9.11983C23.6281 8.94059 23.5214 8.75625 23.3417 8.70811C23.1621 8.65998 22.9775 8.76627 22.9295 8.9455Z" fill="white"/>
<path fill-rule="evenodd" clip-rule="evenodd" d="M22.9282 9.09491C22.9317 9.11273 22.9366 9.13016 22.9428 9.14706C22.9439 9.1499 22.945 9.15271 22.9461 9.15551C22.9663 9.20602 22.9985 9.25133 23.0404 9.28703C23.0774 9.31864 23.1219 9.3427 23.172 9.35615C23.3517 9.4043 23.5364 9.29797 23.5845 9.11866C23.6325 8.93936 23.5257 8.75494 23.346 8.70678C23.208 8.66979 23.067 8.72398 22.9872 8.83239C22.9632 8.86509 22.9447 8.90272 22.9336 8.94427C22.922 8.98747 22.9195 9.03097 22.9247 9.0728L13.4496 11.3657C12.9592 11.4844 12.5164 11.0426 12.6353 10.5532L14.8861 1.28931C14.9632 1.30623 15.0405 1.29516 15.1068 1.26255C15.1907 1.22125 15.2571 1.14541 15.2832 1.04806C15.3312 0.868754 15.2245 0.684333 15.0447 0.636178C14.865 0.588023 14.6804 0.694357 14.6323 0.873661C14.6062 0.97101 14.6258 1.06987 14.6778 1.14761C14.7189 1.209 14.7803 1.25722 14.8556 1.28114L12.1728 10.4293C12.0311 10.9125 11.4267 11.0737 11.0614 10.7258L4.00215 4.00261C4.02768 3.96901 4.04717 3.92996 4.05874 3.88676C4.06986 3.84525 4.07269 3.80347 4.06823 3.76317C4.05345 3.62938 3.95842 3.51189 3.82031 3.47488C3.64059 3.42673 3.45593 3.53306 3.40788 3.71237C3.35984 3.89167 3.4666 4.07609 3.64631 4.12425C3.69646 4.13768 3.74699 4.1391 3.79483 4.13026C3.84899 4.12025 3.8997 4.09709 3.94251 4.06335C3.94485 4.0615 3.94718 4.05962 3.94947 4.05771C3.96326 4.04623 3.97617 4.03363 3.98805 4.01998L10.7231 11.0635C11.0717 11.4281 10.9101 12.0313 10.4259 12.1727L1.0714 14.905C1.06795 14.8873 1.06307 14.8699 1.05686 14.8531C1.05583 14.8503 1.05476 14.8475 1.05365 14.8447C1.03345 14.7941 1.00111 14.7487 0.959209 14.7129C0.922202 14.6814 0.877737 14.6573 0.827587 14.6439C0.647871 14.5957 0.463205 14.7021 0.415161 14.8814C0.367117 15.0607 0.473875 15.2451 0.653591 15.2932C0.791704 15.3302 0.93274 15.276 1.01244 15.1675C1.03645 15.1349 1.0549 15.0973 1.06602 15.0558C1.07759 15.0126 1.08024 14.969 1.07493 14.9271L10.55 12.6343C11.0403 12.5156 11.4831 12.9575 11.3642 13.4469L9.11354 22.7107C9.03642 22.6938 8.95913 22.7049 8.89283 22.7375C8.80887 22.7788 8.74253 22.8546 8.71645 22.952C8.6684 23.1313 8.77516 23.3157 8.95488 23.3638C9.1346 23.412 9.31926 23.3057 9.36731 23.1264C9.39339 23.029 9.37386 22.9302 9.3218 22.8524C9.28069 22.791 9.21929 22.7428 9.14404 22.7189L11.8267 13.5708C11.9685 13.0876 12.5729 12.9263 12.9382 13.2743L19.9974 19.9975C19.972 20.0311 19.9525 20.0701 19.9409 20.1133C19.9297 20.1548 19.9269 20.1966 19.9314 20.237C19.9462 20.3707 20.0412 20.4881 20.1793 20.5251C20.359 20.5733 20.5437 20.467 20.5917 20.2877C20.6398 20.1084 20.533 19.9239 20.3533 19.8758C20.3031 19.8623 20.2526 19.8609 20.2047 19.8698C20.1507 19.8798 20.1 19.9029 20.0573 19.9366C20.0549 19.9384 20.0526 19.9403 20.0503 19.9422C20.0364 19.9538 20.0235 19.9664 20.0116 19.9801L13.2765 12.9366C12.9279 12.5719 13.0895 11.9688 13.5737 11.8274L22.9282 9.09491ZM20.0441 19.6735L13.447 12.7742C13.2204 12.5372 13.3254 12.1452 13.6402 12.0532L22.8031 9.37674C22.8772 9.47433 22.9833 9.54916 23.1111 9.58342C23.4167 9.66529 23.7306 9.48453 23.8123 9.1797C23.8939 8.87488 23.7125 8.56137 23.4069 8.47951C23.1014 8.39764 22.7875 8.5784 22.7058 8.88323C22.7058 8.88335 22.7057 8.88347 22.7057 8.88359L13.3937 11.137C13.075 11.2142 12.7872 10.9269 12.8645 10.6089L15.0725 1.52106C15.2783 1.47915 15.453 1.32533 15.511 1.1091C15.5926 0.804271 15.4112 0.490767 15.1056 0.408902C14.8001 0.327036 14.4862 0.507797 14.4045 0.812622C14.3466 1.02885 14.421 1.24943 14.5783 1.38864L11.9465 10.3629C11.8544 10.677 11.4615 10.7818 11.224 10.5557L4.28642 3.94824C4.28646 3.94809 4.2865 3.94795 4.28654 3.9478C4.36822 3.64298 4.18674 3.32947 3.88121 3.24761C3.57568 3.16574 3.26176 3.3465 3.18008 3.65133C3.09841 3.95615 3.27989 4.26966 3.58542 4.35152C3.7133 4.38579 3.84249 4.37401 3.95546 4.32658L10.5526 11.2259C10.5526 11.2259 10.5526 11.2259 10.5526 11.2259C10.7791 11.4629 10.6741 11.8549 10.3594 11.9469L1.19649 14.6232C1.12236 14.5257 1.01637 14.4509 0.888486 14.4166C0.582959 14.3347 0.269038 14.5155 0.187361 14.8203C0.105683 15.1251 0.287166 15.4386 0.592693 15.5205C0.89822 15.6024 1.21214 15.4216 1.29382 15.1168C1.29386 15.1166 1.2939 15.1165 1.29394 15.1164L10.6058 12.8631C10.9245 12.7859 11.2123 13.0731 11.1351 13.3912L8.92714 22.479C8.72133 22.5209 8.54659 22.6747 8.48865 22.8909C8.40697 23.1958 8.58845 23.5093 8.89398 23.5911C9.19951 23.673 9.51343 23.4922 9.59511 23.1874C9.65305 22.9712 9.57863 22.7506 9.42134 22.6114L12.053 13.6372C12.1452 13.323 12.538 13.2182 12.7755 13.4444L19.7132 20.0519C19.7131 20.052 19.7131 20.0521 19.7131 20.0522C19.6314 20.357 19.8129 20.6705 20.1184 20.7524C20.4239 20.8343 20.7379 20.6535 20.8195 20.3487C20.9012 20.0439 20.7197 19.7304 20.4142 19.6485C20.2863 19.6142 20.1571 19.626 20.0441 19.6735Z" fill="white"/>
</svg>
